# xmcd
#
# Track frame offsets:
#	150
#	10255
#	20957
#	33205
#	47752
#	59972
#	69560
#	78995
#	90510
#	100787
#	110695
#	123562
#
# Disc length: 1761 seconds
#
# Revision: 1
# Processed by: cddbd v1.5.2PL0 Copyright (c) Steve Scherf et al.
# Submitted via: audiograbber 1.83.01
#
DISCID=a206df0c
DTITLE=George Jones and Tammy Wynette - 36 All-Time Favorites - Disc #03
DYEAR=2002
DGENRE=Country
TTITLE0=Something To Brag About
TTITLE1=Never Ending Song Of Love
TTITLE2=We Could
TTITLE3=It's Not My Fault
TTITLE4=Cryin' Time
TTITLE5=Did You Ever?
TTITLE6=Number One
TTITLE7="IT"
TTITLE8=Livin' On Easy Street
TTITLE9=After Closing Time
TTITLE10=Old Fashioned Singing
TTITLE11=We Love To Sing About Jesus
EXTD=
EXTT0=
EXTT1=
EXTT2=
EXTT3=
EXTT4=
EXTT5=
EXTT6=
EXTT7=
EXTT8=
EXTT9=
EXTT10=
EXTT11=
PLAYORDER=
